<?xml version="1.0" encoding="UTF-8"?>
<svg width="600px" height="600px" viewBox="0 0 600 600" version="1.1" xmlns="http://www.w3.org/2000/svg" xmlns:xlink="http://www.w3.org/1999/xlink">
    <title>Artboard</title>
    <g id="Artboard" stroke="none" stroke-width="1" fill="none" fill-rule="evenodd">
        <g id="Group">
            <path d="M300,0 C134.316448,0 0,134.311015 0,299.996499 C0,465.681984 134.316448,600 300,600 C465.683552,600 600,465.681984 600,299.996499 C600,134.311015 465.683552,0 300,0" id="Path" fill="#FFFFFF"></path>
            <path d="M169.5,105 C100.731959,105 45,160.740321 45,229.494614 C45,298.259682 100.731959,354 169.5,354 C238.25727,354 294,298.259682 294,229.494614 C294,160.740321 238.25727,105 169.5,105" id="Path" fill="#FFE300"></path>
            <path d="M423.021759,267 C434.146308,267 444.256991,273.440922 448.962726,283.518413 C465.715975,319.42953 494.57967,348.298291 530.484485,365.054481 C540.560208,369.761039 547,379.880492 547,391 C547,402.126501 540.560208,412.238961 530.484485,416.945519 C494.57967,433.701709 465.715975,462.57047 448.962726,498.481587 C444.256991,508.559078 434.146308,515 423.021759,515 C411.897211,515 401.786526,508.559078 397.080793,498.481587 C392.788188,489.280252 387.700515,480.541258 381.903049,472.349894 C376.103715,480.541258 371.015169,489.280252 366.720772,498.481587 C362.022031,508.559078 351.904354,515 340.779807,515 C329.662249,515 319.544574,508.559078 314.845833,498.481587 C310.72976,489.662337 305.884123,481.267828 300.383697,473.373159 C294.880916,481.267828 290.035279,489.662337 285.919207,498.481587 C281.213474,508.559078 271.102791,515 259.978241,515 C248.860683,515 238.743007,508.559078 234.044266,498.481587 C217.284025,462.57047 188.427323,433.701709 152.522508,416.945519 C142.439792,412.238961 136,402.126501 136,391 C136,379.880492 142.439792,369.761039 152.522508,365.054481 C188.427323,348.298291 217.284025,319.42953 234.044266,283.518413 C238.743007,273.440922 248.860683,267 259.978241,267 C271.102791,267 281.213474,273.440922 285.919207,283.518413 C290.035279,292.337663 294.880916,300.732172 300.381342,308.626841 C305.884123,300.732172 310.72976,292.337663 314.845833,283.518413 C319.544574,273.440922 329.662249,267 340.779807,267 C351.904354,267 362.022031,273.440922 366.720772,283.518413 C371.015169,292.719748 376.103715,301.458742 381.90149,309.650106 C387.700515,301.458742 392.788188,292.719748 397.080793,283.518413 C401.786526,273.440922 411.897211,267 423.021759,267 Z" id="Combined-Shape" fill="#00567A"></path>
            <path d="M142.670455,303.265251 L68.1293578,434.141111 C66.6119645,436.799876 66.6259506,440.068967 68.15733,442.720718 C69.6956998,445.37247 72.5137173,447 75.5694822,447 L224.427911,447 C227.483677,447 230.308687,445.37247 231.840066,442.720718 C233.378436,440.068967 233.38543,436.799876 231.868035,434.141111 L157.326941,303.265251 C155.823532,300.62753 153.026493,299 149.998698,299 C146.970902,299 144.173863,300.62753 142.670455,303.265251" id="Path" fill="#00567A"></path>
        </g>
    </g>
</svg>