<?xml version="1.0" encoding="UTF-8"?>
<svg width="631px" height="224px" viewBox="0 0 631 224" version="1.1" xmlns="http://www.w3.org/2000/svg" xmlns:xlink="http://www.w3.org/1999/xlink">
    <title>Artboard</title>
    <g id="Artboard" stroke="none" stroke-width="1" fill="none" fill-rule="evenodd">
        <path d="M169.978814,99.1164776 C193.480098,114.7558 253.030289,157.880719 288.927522,138.90761 C338.779642,112.55879 315.338456,52.5017218 284.173213,43.9483025 C271.298341,40.4147448 251.800346,40.4147448 225.679229,43.9483025 C233.075432,22.281821 243.25877,9.81509116 256.229244,6.54811299 C309.335689,-6.82823766 351.480025,3.01567675 394.920464,39.7317496 C410.769702,53.1276038 431.781838,67.9797036 444.104388,82.4791569 C508.002583,157.665617 570.049188,177.820326 630.244203,142.943285 C606.207725,166.482482 587.752786,180.762746 574.879387,185.784078 C552.078922,194.67751 520.431415,189.538468 508.538289,187.644783 C500.245218,186.324318 455.328385,164.858943 410.598762,164.632551 C370.704024,164.43063 359.33107,192.82205 315.278546,195.626372 C271.226023,198.430694 230.181462,175.189096 200.047517,179.373005 C179.798184,182.184497 167.025333,194.817611 159.7575,203.206261 C152.489666,211.594911 152.210035,213.149439 133.361817,220.941487 C114.513598,228.733534 69.5784929,216.831904 57.9704624,214.118838 C46.792606,211.506314 27.5734151,196.603615 0.312890011,169.410743 C48.686964,186.140907 82.0700756,186.140907 100.462225,169.410743 C128.050449,144.315497 117.352315,125.639766 112.49967,115.930292 C106.045183,103.015754 92.3429953,97.411149 71.3931056,99.1164776 C80.8116364,83.572133 90.5013429,75.7999607 100.462225,75.7999607 C115.403548,75.7999607 146.47753,83.4771557 169.978814,99.1164776 Z" id="a" fill="#FFFFFF"></path>
    </g>
</svg>